HIERARCHY
ROOT hip
{
  OFFSET 0 0 0
  CHANNELS 6 Xposition Yposition Zposition Zrotation Yrotation Xrotation
  JOINT abdomen
  {
    OFFSET 0 20.6881 -0.73152
    CHANNELS 3 Zrotation Xrotation Yrotation
    JOINT chest
    {
      OFFSET 0 11.7043 -0.48768
      CHANNELS 3 Zrotation Xrotation Yrotation
      JOINT neck
      {
        OFFSET 0 22.1894 -2.19456
        CHANNELS 3 Zrotation Xrotation Yrotation
        JOINT head
        {
          OFFSET -0.24384 7.07133 1.2192
          CHANNELS 3 Zrotation Xrotation Yrotation
          JOINT leftEye
          {
            OFFSET 4.14528 8.04674 8.04672
            CHANNELS 3 Zrotation Xrotation Yrotation
            End Site
            {
              OFFSET 1 0 0
            }
          }
          JOINT rightEye
          {
            OFFSET -3.6576 8.04674 8.04672
            CHANNELS 3 Zrotation Xrotation Yrotation
            End Site
            {
              OFFSET 1 0 0
            }
          }
        }
      }
      JOINT rCollar
      {
        OFFSET -2.68224 19.2634 -4.8768
        CHANNELS 3 Zrotation Xrotation Yrotation
        JOINT rShldr
        {
          OFFSET -8.77824 -1.95073 1.46304
          CHANNELS 3 Zrotation Xrotation Yrotation
          JOINT rForeArm
          {
            OFFSET -28.1742 -1.7115 0.48768
            CHANNELS 3 Zrotation Xrotation Yrotation
            JOINT rHand
            {
              OFFSET -22.5879 0.773209 7.07136
              CHANNELS 3 Zrotation Xrotation Yrotation
              JOINT rThumb1
              {
                OFFSET -1.2192 -0.487915 3.41376
                CHANNELS 3 Zrotation Xrotation Yrotation
                JOINT rThumb2
                {
                  OFFSET -3.37035 -0.52449 3.41376
                  CHANNELS 3 Zrotation Xrotation Yrotation
                  End Site
                  {
                    OFFSET -1.78271 -1.18214 1.43049
                  }
                }
              }
              JOINT rIndex1
              {
                OFFSET -7.75947 0.938293 5.60832
                CHANNELS 3 Zrotation Xrotation Yrotation
                JOINT rIndex2
                {
                  OFFSET -2.54057 -0.884171 1.56538
                  CHANNELS 3 Zrotation Xrotation Yrotation
                  End Site
                  {
                    OFFSET -1.62519 -0.234802 1.16502
                  }
                }
              }
              JOINT rMid1
              {
                OFFSET -8.24714 1.18213 3.41376
                CHANNELS 3 Zrotation Xrotation Yrotation
                JOINT rMid2
                {
                  OFFSET -3.10165 -0.590103 1.0647
                  CHANNELS 3 Zrotation Xrotation Yrotation
                  End Site
                  {
                    OFFSET -2.48547 -0.328903 0.83742
                  }
                }
              }
              JOINT rRing1
              {
                OFFSET -8.82822 0.546677 1.51678
                CHANNELS 3 Zrotation Xrotation Yrotation
                JOINT rRing2
                {
                  OFFSET -2.60934 -0.819778 -0.0198488
                  CHANNELS 3 Zrotation Xrotation Yrotation
                  End Site
                  {
                    OFFSET -2.33842 -0.294052 0.168128
                  }
                }
              }
              JOINT rPinky1
              {
                OFFSET -8.27202 -0.0477905 -0.4584
                CHANNELS 3 Zrotation Xrotation Yrotation
                JOINT rPinky2
                {
                  OFFSET -1.82734 -0.647385 -0.700984
                  CHANNELS 3 Zrotation Xrotation Yrotation
                  End Site
                  {
                    OFFSET -1.69225 -0.51767 -0.607171
                  }
                }
              }
            }
          }
        }
      }
      JOINT lCollar
      {
        OFFSET 2.68224 19.2634 -4.8768
        CHANNELS 3 Zrotation Xrotation Yrotation
        JOINT lShldr
        {
          OFFSET 8.77824 -1.95073 1.46304
          CHANNELS 3 Zrotation Xrotation Yrotation
          JOINT lForeArm
          {
            OFFSET 28.1742 -1.7115 0.48768
            CHANNELS 3 Zrotation Xrotation Yrotation
            JOINT lHand
            {
              OFFSET 22.5879 0.773209 7.07136
              CHANNELS 3 Zrotation Xrotation Yrotation
              JOINT lThumb1
              {
                OFFSET 1.2192 -0.487915 3.41376
                CHANNELS 3 Zrotation Xrotation Yrotation
                JOINT lThumb2
                {
                  OFFSET 3.37035 -0.52449 3.41376
                  CHANNELS 3 Zrotation Xrotation Yrotation
                  End Site
                  {
                    OFFSET 1.78271 -1.18214 1.43049
                  }
                }
              }
              JOINT lIndex1
              {
                OFFSET 7.75947 0.938293 5.60832
                CHANNELS 3 Zrotation Xrotation Yrotation
                JOINT lIndex2
                {
                  OFFSET 2.54057 -0.884171 1.56538
                  CHANNELS 3 Zrotation Xrotation Yrotation
                  End Site
                  {
                    OFFSET 1.62519 -0.234802 1.16502
                  }
                }
              }
              JOINT lMid1
              {
                OFFSET 8.24714 1.18213 3.41376
                CHANNELS 3 Zrotation Xrotation Yrotation
                JOINT lMid2
                {
                  OFFSET 3.10165 -0.590103 1.0647
                  CHANNELS 3 Zrotation Xrotation Yrotation
                  End Site
                  {
                    OFFSET 2.48547 -0.328903 0.83742
                  }
                }
              }
              JOINT lRing1
              {
                OFFSET 8.82822 0.546677 1.51678
                CHANNELS 3 Zrotation Xrotation Yrotation
                JOINT lRing2
                {
                  OFFSET 2.60934 -0.819778 -0.0198488
                  CHANNELS 3 Zrotation Xrotation Yrotation
                  End Site
                  {
                    OFFSET 2.33842 -0.294052 0.168128
                  }
                }
              }
              JOINT lPinky1
              {
                OFFSET 8.27202 -0.0477905 -0.4584
                CHANNELS 3 Zrotation Xrotation Yrotation
                JOINT lPinky2
                {
                  OFFSET 1.82734 -0.647385 -0.700984
                  CHANNELS 3 Zrotation Xrotation Yrotation
                  End Site
                  {
                    OFFSET 1.69225 -0.51767 -0.607171
                  }
                }
              }
            }
          }
        }
      }
    }
  }
  JOINT rButtock
  {
    OFFSET -8.77824 4.35084 1.2192
    CHANNELS 3 Zrotation Xrotation Yrotation
    JOINT rThigh
    {
      OFFSET 0 -1.70687 -2.19456
      CHANNELS 3 Zrotation Xrotation Yrotation
      JOINT rShin
      {
        OFFSET 0 -36.8199 0.73152
        CHANNELS 3 Zrotation Xrotation Yrotation
        JOINT rFoot
        {
          OFFSET 0.73152 -45.1104 -5.12064
          CHANNELS 3 Zrotation Xrotation Yrotation
          End Site
          {
            OFFSET -1.1221 -3.69964 12.103
          }
        }
      }
    }
  }
  JOINT lButtock
  {
    OFFSET 8.77824 4.35084 1.2192
    CHANNELS 3 Zrotation Xrotation Yrotation
    JOINT lThigh
    {
      OFFSET 0 -1.70687 -2.19456
      CHANNELS 3 Zrotation Xrotation Yrotation
      JOINT lShin
      {
        OFFSET 0 -36.8199 0.73152
        CHANNELS 3 Zrotation Xrotation Yrotation
        JOINT lFoot
        {
          OFFSET -0.73152 -45.1104 -5.12064
          CHANNELS 3 Zrotation Xrotation Yrotation
          End Site
          {
            OFFSET 1.1221 -3.69964 12.103
          }
        }
      }
    }
  }
}
MOTION
Frames:	8
Frame Time:	0.00833333
6.55018 71.0976 18.8377 12.5453 -37.906 8.185 3.0788 1.83075 10.4025 -4.25132 4.28227 2.98532 -12.2448 19.0527 -9.41391 28.1084 34.4307 -29.6385 -0.0 0.0 0.0 -0.0 0.0 0.0 2.71836e-14 3.57191e-17 3.27647e-13 62.9829 53.444 22.7371 -8.98293 -3.5458 15.9076 -0.325497 16.0205 2.31273 -1.95169e-09 1.88961e-09 -2.0374e-09 -3.4001e-09 3.26496e-09 -3.49521e-09 -1.95169e-09 1.88961e-09 -2.03742e-09 7.73091 5.47488 0.417314 -1.95169e-09 1.8896e-09 -2.03741e-09 2.90554 0.965183 0.102902 -1.95169e-09 1.8896e-09 -2.03741e-09 10.2786 0.731801 0.0259123 -1.9517e-09 1.8896e-09 -2.0374e-09 2.22167 -0.733487 -0.20892 2.69377e-14 -3.72721e-17 3.27498e-13 45.825 56.9784 -120.033 27.8711 -29.8925 -67.0773 0.872999 -25.5396 3.85054 1.75793e-09 -5.14448e-10 2.823e-09 2.97906e-09 -8.97225e-10 4.91106e-09 1.75791e-09 -5.14452e-10 2.82306e-09 -7.73091 5.47488 -0.417314 1.75793e-09 -5.14445e-10 2.823e-09 -2.90554 0.965183 -0.102902 1.75792e-09 -5.14448e-10 2.823e-09 -10.2786 0.731801 -0.0259123 1.75794e-09 -5.14443e-10 2.823e-09 -2.22167 -0.733487 0.20892 -2.03217e-16 0.0 -3.88251e-19 -27.8224 -36.0022 -4.51981 -3.30257 75.8213 3.71811 -1.45181 0.542959 -12.1852 2.03217e-16 0.0 3.88251e-19 -41.655 -51.9665 -38.2413 1.09689 59.5686 -1.22967 -1.65915 -16.0025 -4.34464
6.54679 71.111 18.8337 12.5177 -37.917 8.1902 2.92622 1.96166 10.9063 -4.49229 4.44317 3.14742 -11.6065 18.8087 -9.6995 28.3622 34.1986 -30.0798 -0.0 0.0 0.0 -0.0 0.0 0.0 4.84084e-14 -2.2181e-14 2.09152e-13 63.6206 52.4962 22.5318 -8.95023 -3.52747 15.847 -0.336696 16.2952 2.35448 -2.15858e-09 1.60539e-09 -1.22823e-09 -3.74572e-09 2.76657e-09 -2.09275e-09 -2.15858e-09 1.60539e-09 -1.22825e-09 7.73091 5.47488 0.417314 -2.15858e-09 1.60538e-09 -1.22824e-09 2.90554 0.965183 0.102902 -2.15858e-09 1.60538e-09 -1.22823e-09 10.2786 0.731801 0.0259123 -2.15859e-09 1.60538e-09 -1.22822e-09 2.22167 -0.733487 -0.20892 4.8215e-14 -2.22485e-14 2.08976e-13 46.4467 56.2306 -120.317 27.8744 -29.9098 -67.1048 0.885032 -25.7019 3.87859 1.45614e-09 -3.14478e-10 2.20546e-09 2.46966e-09 -5.5059e-10 3.83891e-09 1.45613e-09 -3.14481e-10 2.20552e-09 -7.73091 5.47488 -0.417314 1.45614e-09 -3.14476e-10 2.20547e-09 -2.90554 0.965183 -0.102902 1.45614e-09 -3.14478e-10 2.20547e-09 -10.2786 0.731801 -0.0259123 1.45615e-09 -3.14473e-10 2.20546e-09 -2.22167 -0.733487 0.20892 -2.03217e-16 0.0 -3.88251e-19 -27.873 -36.0009 -4.52232 -3.29255 75.7895 3.70497 -1.40818 0.736471 -12.1686 2.03217e-16 0.0 3.88251e-19 -41.6801 -51.9429 -38.2383 1.09435 59.53 -1.22738 -1.65087 -15.9864 -4.32434
6.55194 71.1331 18.8348 12.5347 -37.9051 8.1951 2.71726 2.15968 11.6866 -4.86779 4.66827 3.39761 -10.6792 18.4788 -10.1274 28.7829 33.8418 -30.7573 -0.0 0.0 0.0 -0.0 0.0 0.0 9.93096e-14 -2.34306e-14 -7.92623e-14 64.5986 51.0398 22.2042 -8.90204 -3.50047 15.7578 -0.355567 16.735 2.42171 -1.96111e-09 8.08452e-10 2.31321e-10 -3.38333e-09 1.38027e-09 4.292e-10 -1.96111e-09 8.08458e-10 2.3131e-10 7.73091 5.47488 0.417314 -1.96111e-09 8.08451e-10 2.31322e-10 2.90554 0.965183 0.102902 -1.96111e-09 8.08449e-10 2.31325e-10 10.2786 0.731801 0.0259123 -1.96112e-09 8.08452e-10 2.31334e-10 2.22167 -0.733487 -0.20892 9.92179e-14 -2.3483e-14 -7.94735e-14 47.4304 55.0801 -120.766 27.8796 -29.9375 -67.149 0.902184 -25.9293 3.91809 5.83073e-10 5.00526e-11 8.97656e-10 9.87761e-10 8.25562e-11 1.56362e-09 5.83061e-10 5.00502e-11 8.97693e-10 -7.73091 5.47488 -0.417314 5.83073e-10 5.00534e-11 8.97656e-10 -2.90554 0.965183 -0.102902 5.83066e-10 5.00507e-11 8.97657e-10 -10.2786 0.731801 -0.0259123 5.83084e-10 5.0057e-11 8.97652e-10 -2.22167 -0.733487 0.20892 -2.03217e-16 0.0 -3.88251e-19 -27.9447 -35.9884 -4.53141 -3.28038 75.754 3.69038 -1.37038 0.884924 -12.1059 2.03217e-16 0.0 3.88251e-19 -41.7233 -51.9185 -38.2219 1.09182 59.4934 -1.22577 -1.61213 -16.0026 -4.212
6.56007 71.1506 18.8368 12.6125 -37.9531 8.1511 2.50785 2.3676 12.4837 -5.25036 4.88049 3.65245 -9.7534 18.1549 -10.5569 29.2178 33.4775 -31.4415 -0.0 0.0 0.0 -0.0 0.0 0.0 1.80099e-13 -8.1828e-15 -3.96403e-13 65.5976 49.5401 21.8748 -8.8546 -3.4739 15.6702 -0.37658 17.1978 2.49293 -1.73872e-09 9.05011e-11 1.4787e-09 -2.98076e-09 1.31695e-10 2.58466e-09 -1.73871e-09 9.05072e-11 1.4787e-09 7.73091 5.47488 0.417314 -1.73872e-09 9.05037e-11 1.47871e-09 2.90554 0.965183 0.102902 -1.73872e-09 9.05033e-11 1.47871e-09 10.2786 0.731801 0.0259123 -1.73872e-09 9.05058e-11 1.47872e-09 2.22167 -0.733487 -0.20892 1.80114e-13 -8.21673e-15 -3.96643e-13 48.4031 53.9183 -121.184 27.8844 -29.963 -67.1896 0.91869 -26.1439 3.95556 -3.61173e-10 4.28737e-10 -2.66945e-10 -6.20092e-10 7.40373e-10 -4.65805e-10 -3.61181e-10 4.28736e-10 -2.66924e-10 -7.73091 5.47488 -0.417314 -3.61172e-10 4.28737e-10 -2.66947e-10 -2.90554 0.965183 -0.102902 -3.61179e-10 4.28734e-10 -2.66946e-10 -10.2786 0.731801 -0.0259123 -3.61161e-10 4.28741e-10 -2.66951e-10 -2.22167 -0.733487 0.20892 -2.03217e-16 0.0 -3.88251e-19 -28.0048 -35.9788 -4.53714 -3.27191 75.7251 3.68037 -1.34412 0.976859 -12.0324 2.03217e-16 0.0 3.88251e-19 -41.7504 -51.9022 -38.1874 1.08978 59.4649 -1.22484 -1.56599 -16.032 -4.07685
6.55882 71.1643 18.8339 12.6616 -38.0399 8.1038 2.36022 2.53006 13.0376 -5.51011 5.00298 3.82828 -9.11427 17.9291 -10.8487 29.5241 33.2259 -31.9087 -0.0 0.0 0.0 -0.0 0.0 0.0 2.90989e-13 1.90926e-14 -6.01075e-13 66.3289 48.4628 21.6227 -8.82429 -3.45692 15.6143 -0.392891 17.5413 2.54614 -1.87083e-09 4.32237e-11 1.65135e-09 -3.20589e-09 4.6487e-11 2.88765e-09 -1.87083e-09 4.32301e-11 1.65135e-09 7.73091 5.47488 0.417314 -1.87084e-09 4.32295e-11 1.65136e-09 2.90554 0.965183 0.102902 -1.87083e-09 4.32302e-11 1.65136e-09 10.2786 0.731801 0.0259123 -1.87084e-09 4.32321e-11 1.65137e-09 2.22167 -0.733487 -0.20892 2.91071e-13 1.90746e-14 -6.01324e-13 49.0382 53.1369 -121.438 27.8864 -29.9735 -67.2065 0.928364 -26.2676 3.97727 -8.76481e-10 6.7117e-10 -4.54864e-10 -1.50734e-09 1.16102e-09 -8.00376e-10 -8.76486e-10 6.7117e-10 -4.54854e-10 -7.73091 5.47488 -0.417314 -8.7648e-10 6.71169e-10 -4.54867e-10 -2.90554 0.965183 -0.102902 -8.76487e-10 6.71167e-10 -4.54866e-10 -10.2786 0.731801 -0.0259123 -8.76469e-10 6.71174e-10 -4.5487e-10 -2.22167 -0.733487 0.20892 -2.03217e-16 0.0 -3.88251e-19 -28.0207 -35.9857 -4.52954 -3.27288 75.7132 3.68089 -1.3347 1.00073 -11.9832 2.03217e-16 0.0 3.88251e-19 -41.7272 -51.903 -38.13 1.08868 59.4505 -1.22463 -1.53575 -16.0557 -3.98818
6.54934 71.1672 18.8262 12.6682 -38.1036 8.0652 2.30945 2.62442 13.2377 -5.59911 5.00808 3.89005 -8.87074 17.8282 -10.9461 29.6598 33.136 -32.0712 -0.0 0.0 0.0 -0.0 0.0 0.0 4.89665e-13 7.31179e-14 -6.58935e-13 66.7048 47.9774 21.4538 -8.82082 -3.45495 15.6079 -0.400906 17.7071 2.57188 -2.77475e-09 1.2684e-09 -1.3393e-10 -4.79198e-09 2.16687e-09 -1.81602e-10 -2.77475e-09 1.2684e-09 -1.33932e-10 7.73091 5.47488 0.417314 -2.77475e-09 1.26841e-09 -1.3392e-10 2.90554 0.965183 0.102902 -2.77475e-09 1.26841e-09 -1.33921e-10 10.2786 0.731801 0.0259123 -2.77475e-09 1.26841e-09 -1.33911e-10 2.22167 -0.733487 -0.20892 4.89753e-13 7.31136e-14 -6.5916e-13 49.2079 52.8894 -121.494 27.8838 -29.9596 -67.1841 0.927506 -26.2562 3.97528 -6.98257e-10 7.16862e-10 1.18088e-09 -1.23485e-09 1.23866e-09 2.02776e-09 -6.9826e-10 7.16864e-10 1.18089e-09 -7.73091 5.47488 -0.417314 -6.98256e-10 7.16863e-10 1.18088e-09 -2.90554 0.965183 -0.102902 -6.98263e-10 7.16861e-10 1.18088e-09 -10.2786 0.731801 -0.0259123 -6.98248e-10 7.16866e-10 1.18088e-09 -2.22167 -0.733487 0.20892 -2.03217e-16 0.0 -3.88251e-19 -27.9868 -36.0187 -4.52755 -3.29045 75.7308 3.70013 -1.35638 0.88973 -11.961 2.03217e-16 0.0 3.88251e-19 -41.6504 -51.9335 -38.0642 1.08923 59.4604 -1.22553 -1.53642 -16.0644 -3.99
6.54443 71.1713 18.7995 12.6665 -38.0884 8.0568 2.3193 2.68376 13.2363 -5.59005 4.93928 3.88654 -8.85703 17.8022 -10.9308 29.7067 33.1394 -32.0601 -0.0 0.0 0.0 -0.0 0.0 0.0 7.56802e-13 1.50972e-13 -6.44183e-13 66.896 47.8203 21.3126 -8.83371 -3.46212 15.6318 -0.404261 17.7778 2.58286 -4.14273e-09 3.30245e-09 -3.19939e-09 -7.19777e-09 5.6896e-09 -5.45606e-09 -4.14273e-09 3.30246e-09 -3.19939e-09 7.73091 5.47488 0.417314 -4.14273e-09 3.30247e-09 -3.19938e-09 2.90554 0.965183 0.102902 -4.14272e-09 3.30247e-09 -3.19938e-09 10.2786 0.731801 0.0259123 -4.14273e-09 3.30247e-09 -3.19937e-09 2.22167 -0.733487 -0.20892 7.56862e-13 1.50982e-13 -6.44364e-13 49.1178 52.9503 -121.448 27.8782 -29.9298 -67.1366 0.919975 -26.1591 3.95828 -1.36973e-10 6.52824e-10 3.98753e-09 -3.25241e-10 1.12493e-09 6.88531e-09 -1.36975e-10 6.52828e-10 3.98753e-09 -7.73091 5.47488 -0.417314 -1.36972e-10 6.52827e-10 3.98753e-09 -2.90554 0.965183 -0.102902 -1.36979e-10 6.52826e-10 3.98753e-09 -10.2786 0.731801 -0.0259123 -1.36967e-10 6.52829e-10 3.98753e-09 -2.22167 -0.733487 0.20892 -2.03217e-16 0.0 -3.88251e-19 -27.9194 -36.0685 -4.52927 -3.31978 75.7692 3.73282 -1.40183 0.671202 -11.9493 2.03217e-16 0.0 3.88251e-19 -41.5363 -51.9856 -37.9872 1.09099 59.4885 -1.22742 -1.55269 -16.0696 -4.03685
6.53144 71.1751 18.7599 12.625 -38.1019 8.0757 2.3482 2.73718 13.1673 -5.53285 4.82656 3.85962 -8.94368 17.8291 -10.871 29.712 33.1804 -31.9832 -0.0 0.0 0.0 -0.0 0.0 0.0 9.77104e-13 2.21721e-13 -5.78445e-13 67.0148 47.8089 21.1675 -8.84913 -3.47071 15.6603 -0.406294 17.8234 2.58989 -5.26668e-09 5.13907e-09 -6.06613e-09 -9.17936e-09 8.8721e-09 -1.03915e-08 -5.26668e-09 5.13908e-09 -6.06613e-09 7.73091 5.47488 0.417314 -5.26669e-09 5.13909e-09 -6.06612e-09 2.90554 0.965183 0.102902 -5.26668e-09 5.13909e-09 -6.06613e-09 10.2786 0.731801 0.0259123 -5.26668e-09 5.13909e-09 -6.06612e-09 2.22167 -0.733487 -0.20892 9.77131e-13 2.21743e-13 -5.78577e-13 48.9585 53.1415 -121.396 27.8725 -29.8996 -67.0884 0.910728 -26.0389 3.93728 4.44891e-10 5.49896e-10 6.54894e-09 6.25381e-10 9.44259e-10 1.13196e-08 4.44891e-10 5.49902e-10 6.54895e-09 -7.73091 5.47488 -0.417314 4.44893e-10 5.49902e-10 6.54895e-09 -2.90554 0.965183 -0.102902 4.44887e-10 5.49901e-10 6.54895e-09 -10.2786 0.731801 -0.0259123 4.44895e-10 5.49902e-10 6.54894e-09 -2.22167 -0.733487 0.20892 -2.03217e-16 0.0 -3.88251e-19 -27.8189 -36.1206 -4.49348 -3.34853 75.8068 3.76459 -1.44402 0.47489 -11.9547 2.03217e-16 0.0 3.88251e-19 -41.3793 -52.0368 -37.868 1.09271 59.5166 -1.22944 -1.56249 -16.0839 -4.06387
